<?xml version="1.0" encoding="UTF-8" standalone="no"?>
<svg
   xmlns:dc="http://purl.org/dc/elements/1.1/"
   xmlns:cc="http://creativecommons.org/ns#"
   xmlns:rdf="http://www.w3.org/1999/02/22-rdf-syntax-ns#"
   xmlns:svg="http://www.w3.org/2000/svg"
   xmlns="http://www.w3.org/2000/svg"
   xmlns:sodipodi="http://sodipodi.sourceforge.net/DTD/sodipodi-0.dtd"
   xmlns:inkscape="http://www.inkscape.org/namespaces/inkscape"
   inkscape:export-ydpi="96"
   inkscape:export-xdpi="96"
   inkscape:export-filename="Z:\Projects\github\OKP1Stationeers\icon.png"
   sodipodi:docname="icon.svg"
   inkscape:version="1.0 (4035a4fb49, 2020-05-01)"
   id="svg4562"
   version="1.1"
   viewBox="0 0 67.733331 67.733331"
   height="256"
   width="256">
  <defs
     id="defs4556" />
  <sodipodi:namedview
     inkscape:document-rotation="0"
     units="px"
     inkscape:window-maximized="1"
     inkscape:window-y="732"
     inkscape:window-x="-8"
     inkscape:window-height="996"
     inkscape:window-width="1920"
     showgrid="false"
     inkscape:current-layer="layer1"
     inkscape:document-units="mm"
     inkscape:cy="108.987"
     inkscape:cx="102.50652"
     inkscape:zoom="1.4"
     inkscape:pageshadow="2"
     inkscape:pageopacity="0.0"
     borderopacity="1.0"
     bordercolor="#666666"
     pagecolor="#ffffff"
     id="base" />
  <metadata
     id="metadata4559">
    <rdf:RDF>
      <cc:Work
         rdf:about="">
        <dc:format>image/svg+xml</dc:format>
        <dc:type
           rdf:resource="http://purl.org/dc/dcmitype/StillImage" />
        <dc:title></dc:title>
      </cc:Work>
    </rdf:RDF>
  </metadata>
  <g
     transform="translate(0,-229.26668)"
     id="layer1"
     inkscape:groupmode="layer"
     inkscape:label="Layer 1">
    <g
       transform="matrix(2.4159293,0,0,2.4159293,-49.973181,-371.0601)"
       id="g917">
      <rect
         style="opacity:1;fill:#183d62;fill-opacity:1;stroke:none;stroke-width:1.05833;stroke-linecap:square;stroke-linejoin:round;stroke-miterlimit:4;stroke-dasharray:none;stroke-opacity:1"
         id="rect888"
         width="26.694567"
         height="26.694567"
         x="21.355656"
         y="249.15768"
         ry="0.56696504" />
      <path
         id="rect877"
         style="opacity:1;fill:#ff6e18;fill-opacity:1;stroke:none;stroke-width:0.264583;stroke-linecap:round;stroke-linejoin:round;stroke-miterlimit:4;stroke-dasharray:none;stroke-opacity:1"
         d="m 25.926823,264.96911 9.378514,1.01581 4.77195,5.60889 -14.481193,-2.90569 c 0.780981,-0.95725 0.742758,-2.25944 0.330729,-3.71901 z"
         sodipodi:nodetypes="ccccc" />
      <path
         style="fill:none;stroke:#ff6e18;stroke-width:1.05833;stroke-linecap:round;stroke-linejoin:round;stroke-miterlimit:4;stroke-dasharray:none;stroke-opacity:1"
         d="m 25.182663,264.72557 c -4.560805,5.25766 0.700518,10.065 6.850819,6.77995 2.544288,-0.57111 2.518274,-0.32837 3.354539,-0.47247"
         id="path884"
         sodipodi:nodetypes="ccc" />
      <path
         sodipodi:nodetypes="cc"
         id="path886"
         d="m 26.552827,264.84369 c -3.750309,4.12542 -0.217676,7.98746 4.748326,5.50428"
         style="fill:none;stroke:#ffffff;stroke-width:1.05833;stroke-linecap:square;stroke-linejoin:round;stroke-miterlimit:4;stroke-dasharray:none;stroke-opacity:1" />
      <path
         id="rect862"
         style="opacity:1;fill:#ffffff;stroke:#123b64;stroke-width:1;stroke-linecap:round;stroke-linejoin:round;stroke-miterlimit:4;stroke-dasharray:none;stroke-opacity:1"
         d="M 131.87891,81.421875 C 104.71383,81.905673 82.919798,107.65253 87.8125,134.73242 l 8.035156,1.51758 24.798824,4.9375 0.0606,-0.082 a 10.401786,10.401786 0 0 0 6.0332,1.92969 10.401786,10.401786 0 0 0 10.40235,-10.40039 10.401786,10.401786 0 0 0 -4.19336,-8.34571 l 3.6875,-5.06445 12.66016,-34.625001 c -5.91019,-2.28992 -11.77994,-3.278145 -17.41797,-3.177734 z"
         transform="matrix(0.26458333,0,0,0.26458333,0,229.26668)" />
      <circle
         style="opacity:1;fill:#ffffff;stroke:#183d62;stroke-width:0.264583;stroke-linecap:round;stroke-linejoin:round;stroke-miterlimit:4;stroke-dasharray:none;stroke-opacity:1"
         id="path871"
         cx="33.498138"
         cy="264.3476"
         r="2.1969867" />
      <circle
         r="1.6399413"
         cy="264.3476"
         cx="33.498138"
         id="circle873"
         style="opacity:1;fill:#ffffff;stroke:#183d62;stroke-width:0.264583;stroke-linecap:round;stroke-linejoin:round;stroke-miterlimit:4;stroke-dasharray:none;stroke-opacity:1" />
      <path
         style="opacity:1;fill:none;stroke:#ff6e18;stroke-width:0.295319;stroke-linecap:round;stroke-linejoin:round;stroke-miterlimit:4;stroke-dasharray:none;stroke-opacity:1"
         id="path875"
         sodipodi:type="arc"
         sodipodi:cx="-221.71049"
         sodipodi:cy="173.63956"
         sodipodi:rx="12.723628"
         sodipodi:ry="13.618027"
         sodipodi:start="0"
         sodipodi:end="1.8288233"
         sodipodi:open="true"
         sodipodi:arc-type="arc"
         d="m -208.98687,173.63956 a 12.723628,13.618027 0 0 1 -4.95894,10.78825 12.723628,13.618027 0 0 1 -11.01142,2.37895"
         transform="matrix(0.55188198,-0.83392223,0.89310727,0.44984377,0,0)" />
      <rect
         style="opacity:1;fill:#ffffff;fill-opacity:1;stroke:#123b64;stroke-width:0.264583;stroke-linecap:round;stroke-linejoin:round;stroke-miterlimit:4;stroke-dasharray:none;stroke-opacity:1"
         id="rect880"
         width="19.397533"
         height="1.2287958"
         x="77.564735"
         y="257.84518"
         ry="0.61439788"
         transform="rotate(11.457637)" />
      <g
         aria-label="OKP1"
         transform="matrix(1.1934007,0.2015801,-0.14291585,0.81380128,0,0)"
         id="text892"
         style="font-style:normal;font-variant:normal;font-weight:normal;font-stretch:normal;font-size:2.5456px;line-height:1.25;font-family:sans-serif;-inkscape-font-specification:sans-serif;letter-spacing:0px;word-spacing:0px;fill:#ff6e18;fill-opacity:1;stroke:#183d62;stroke-width:0.0636401;stroke-opacity:1">
        <path
           d="m 58.031281,308.37527 q 0.182717,0 0.315715,0.12305 0.13424,0.12181 0.218762,0.34803 0.08452,0.22622 0.08452,0.58047 0,0.42509 -0.165315,0.71843 -0.164072,0.2921 -0.463627,0.2921 -0.28464,0 -0.448712,-0.28588 -0.164072,-0.28588 -0.164072,-0.73832 0,-0.46363 0.167801,-0.75076 0.169044,-0.28712 0.454926,-0.28712 z m 0.09819,0.29458 q 0,-0.15537 -0.10068,-0.15537 -0.04226,0 -0.07209,0.0385 -0.02983,0.0385 -0.02983,0.0945 v 1.50026 q 0,0.0758 0.02983,0.1156 0.02983,0.0385 0.07085,0.0385 0.04599,0 0.07334,-0.0435 0.02859,-0.0435 0.02859,-0.0969 z"
           style="font-style:normal;font-variant:normal;font-weight:normal;font-stretch:normal;font-family:'Bernard MT Condensed';-inkscape-font-specification:'Bernard MT Condensed, ';fill:#ff6e18;fill-opacity:1;stroke:#183d62;stroke-width:0.0636401;stroke-opacity:1"
           id="path894" />
        <path
           d="m 59.639683,308.97313 0.321929,1.18704 q 0.01616,0.0609 0.06215,0.0833 0.02983,0.0149 0.02983,0.0671 0,0.006 -0.0037,0.0746 -0.0037,0.0298 -0.05221,0.0298 H 59.50298 q -0.02734,0 -0.03605,-0.01 -0.0087,-0.01 -0.0087,-0.0547 0,-0.007 0.0025,-0.0646 0.0037,-0.0224 0.02983,-0.0323 0.03977,-0.0137 0.03977,-0.046 0,-0.009 -0.0025,-0.0211 l -0.174016,-0.62645 -0.04226,0.0932 v 0.50713 q 0,0.0634 0.05593,0.0969 0.02362,0.0137 0.02362,0.0622 0,0.0572 -0.0099,0.0771 -0.0099,0.0187 -0.04847,0.0187 H 58.81193 q -0.02859,0 -0.03977,-0.0112 -0.01119,-0.0124 -0.01119,-0.0671 0,-0.0547 0.0087,-0.0684 0.0087,-0.0149 0.03356,-0.0261 0.04599,-0.0186 0.04599,-0.0671 v -1.49281 q 0,-0.0559 -0.04475,-0.0833 -0.02983,-0.0186 -0.03605,-0.0298 -0.0062,-0.0124 -0.0062,-0.0497 0,-0.0845 0.0062,-0.0969 0.0062,-0.0137 0.03605,-0.0137 h 0.566794 q 0.03978,0 0.03978,0.0323 0,0.10068 -0.0037,0.11684 -0.0037,0.0149 -0.03605,0.0336 -0.05966,0.0311 -0.05966,0.0795 v 0.63765 l 0.270967,-0.61527 q 0.02237,-0.051 0.02237,-0.0771 0,-0.0162 -0.02983,-0.0385 -0.03232,-0.0224 -0.03977,-0.0385 -0.0062,-0.0162 -0.0062,-0.082 0,-0.0485 0.03605,-0.0485 h 0.329387 q 0.02859,0 0.0348,0.0112 0.0062,0.0112 0.0062,0.0646 0,0.0572 -0.0087,0.0696 -0.0075,0.0124 -0.04972,0.0298 -0.03232,0.0124 -0.04102,0.0199 -0.0087,0.007 -0.02113,0.0323 z"
           style="font-style:normal;font-variant:normal;font-weight:normal;font-stretch:normal;font-family:'Bernard MT Condensed';-inkscape-font-specification:'Bernard MT Condensed, ';fill:#ff6e18;fill-opacity:1;stroke:#183d62;stroke-width:0.0636401;stroke-opacity:1"
           id="path896" />
        <path
           d="m 60.677562,309.73135 v 0.4139 q 0,0.0721 0.06215,0.0945 0.02983,0.0112 0.04102,0.0311 0.01243,0.0187 0.01243,0.0709 0,0.0497 -0.01367,0.0622 -0.01367,0.0112 -0.05469,0.0112 H 60.16173 q -0.04475,0 -0.04475,-0.0783 0,-0.0622 0.0062,-0.0758 0.0062,-0.0149 0.04226,-0.0261 0.03232,-0.01 0.03977,-0.0211 0.0087,-0.0124 0.0087,-0.041 v -1.50151 q 0,-0.0534 -0.06588,-0.0858 -0.0348,-0.0186 -0.03605,-0.0572 l -0.0012,-0.0584 q 0,-0.0373 0.0087,-0.0485 0.0099,-0.0124 0.04226,-0.0124 h 0.6364 q 0.274696,0 0.437525,0.1765 0.164072,0.17526 0.164072,0.486 0,0.17526 -0.05096,0.31198 -0.04972,0.13673 -0.126783,0.20136 -0.07582,0.0646 -0.176501,0.10566 -0.09944,0.041 -0.212548,0.041 z m 0,-1.18455 v 1.0416 h 0.08701 q 0.04475,0 0.07955,-0.0485 0.03605,-0.0497 0.03605,-0.16407 v -0.62025 q 0,-0.20881 -0.139213,-0.20881 z"
           style="font-style:normal;font-variant:normal;font-weight:normal;font-stretch:normal;font-family:'Bernard MT Condensed';-inkscape-font-specification:'Bernard MT Condensed, ';fill:#ff6e18;fill-opacity:1;stroke:#183d62;stroke-width:0.0636401;stroke-opacity:1"
           id="path898" />
        <path
           d="m 61.70674,308.9433 q -0.111867,0.0385 -0.190174,0.0385 -0.03853,0 -0.03853,-0.0423 v -0.0497 q 0,-0.0286 0.01119,-0.0423 0.01119,-0.0149 0.05593,-0.0323 0.05966,-0.0249 0.162829,-0.10068 0.103166,-0.0758 0.201361,-0.20261 0.07582,-0.0982 0.08949,-0.10565 0.01367,-0.009 0.04723,-0.009 h 0.103167 v 1.79858 q 0,0.0273 0.04226,0.0485 0.03605,0.0174 0.0435,0.0373 0.0087,0.0186 0.0087,0.10068 0,0.0323 -0.0435,0.0323 h -0.56928 q -0.03605,0 -0.04475,-0.0112 -0.0075,-0.0112 -0.0075,-0.0547 0,-0.0622 0.0062,-0.0771 0.0075,-0.0149 0.05221,-0.0286 0.06961,-0.0211 0.06961,-0.0609 z"
           style="font-style:normal;font-variant:normal;font-weight:normal;font-stretch:normal;font-family:'Bernard MT Condensed';-inkscape-font-specification:'Bernard MT Condensed, ';fill:#ff6e18;fill-opacity:1;stroke:#183d62;stroke-width:0.0636401;stroke-opacity:1"
           id="path900" />
      </g>
    </g>
  </g>
</svg>
